<?xml version="1.0" encoding="UTF-8"?>
<svg width="1200" height="1400" xmlns="http://www.w3.org/2000/svg">
  <defs>
    <linearGradient id="headerGrad" x1="0%" y1="0%" x2="100%" y2="0%">
      <stop offset="0%" style="stop-color:#667eea;stop-opacity:1" />
      <stop offset="100%" style="stop-color:#764ba2;stop-opacity:1" />
    </linearGradient>
    
    <linearGradient id="stage1Grad" x1="0%" y1="0%" x2="0%" y2="100%">
      <stop offset="0%" style="stop-color:#4facfe;stop-opacity:1" />
      <stop offset="100%" style="stop-color:#00f2fe;stop-opacity:1" />
    </linearGradient>
    
    <linearGradient id="stage2Grad" x1="0%" y1="0%" x2="0%" y2="100%">
      <stop offset="0%" style="stop-color:#f093fb;stop-opacity:1" />
      <stop offset="100%" style="stop-color:#f5576c;stop-opacity:1" />
    </linearGradient>
    
    <linearGradient id="stage3Grad" x1="0%" y1="0%" x2="0%" y2="100%">
      <stop offset="0%" style="stop-color:#43e97b;stop-opacity:1" />
      <stop offset="100%" style="stop-color:#38f9d7;stop-opacity:1" />
    </linearGradient>
    
    <linearGradient id="stage4Grad" x1="0%" y1="0%" x2="0%" y2="100%">
      <stop offset="0%" style="stop-color:#fa709a;stop-opacity:1" />
      <stop offset="100%" style="stop-color:#fee140;stop-opacity:1" />
    </linearGradient>
    
    <filter id="shadow">
      <feDropShadow dx="2" dy="2" stdDeviation="4" flood-opacity="0.25"/>
    </filter>
    
    <marker id="arrowBlue" markerWidth="10" markerHeight="7" refX="9" refY="3.5" orient="auto">
      <polygon points="0 0, 10 3.5, 0 7" fill="#667eea"/>
    </marker>
    
    <marker id="arrowRed" markerWidth="10" markerHeight="7" refX="9" refY="3.5" orient="auto">
      <polygon points="0 0, 10 3.5, 0 7" fill="#f5576c"/>
    </marker>
  </defs>
  
  <!-- 背景 -->
  <rect width="1200" height="1400" fill="#f7fafc"/>
  
  <!-- 标题栏 -->
  <rect width="1200" height="80" fill="url(#headerGrad)"/>
  <text x="600" y="35" text-anchor="middle" font-size="24" fill="white" font-weight="bold">
    AI视觉实时检测识别流程 V4.0
  </text>
  <text x="600" y="60" text-anchor="middle" font-size="14" fill="rgba(255,255,255,0.9)">
    Real-time Vision-based Detection &amp; Recognition Flow - No Physical Trigger
  </text>
  
  <!-- ==================== 阶段1: 实时视频流检测 ==================== -->
  <g transform="translate(50, 100)">
    <rect x="0" y="0" width="1100" height="200" rx="12" fill="white" stroke="#4facfe" stroke-width="3" filter="url(#shadow)"/>
    <rect x="0" y="0" width="1100" height="40" rx="12" fill="url(#stage1Grad)"/>
    <text x="550" y="28" text-anchor="middle" font-size="16" fill="white" font-weight="bold">阶段一：实时视频流检测与车辆跟踪</text>
    
    <!-- 流程步骤 -->
    <g transform="translate(30, 60)">
      <!-- 步骤1 -->
      <rect x="0" y="0" width="180" height="110" rx="8" fill="#e6f7ff" stroke="#4facfe" stroke-width="2"/>
      <text x="90" y="30" text-anchor="middle" font-size="12" fill="#0066cc" font-weight="bold">顶部相机</text>
      <text x="90" y="50" text-anchor="middle" font-size="11" fill="#333">实时视频流</text>
      <text x="90" y="70" text-anchor="middle" font-size="10" fill="#666">25-30 FPS</text>
      <text x="90" y="88" text-anchor="middle" font-size="10" fill="#666">连续监控车道</text>
      
      <!-- 箭头 -->
      <path d="M 180,55 L 210,55" stroke="#667eea" stroke-width="2" marker-end="url(#arrowBlue)"/>
      
      <!-- 步骤2 -->
      <rect x="210" y="0" width="200" height="110" rx="8" fill="#e6f7ff" stroke="#4facfe" stroke-width="2"/>
      <text x="310" y="30" text-anchor="middle" font-size="12" fill="#0066cc" font-weight="bold">车辆检测</text>
      <text x="310" y="50" text-anchor="middle" font-size="11" fill="#333">YOLOv8实时推理</text>
      <text x="310" y="70" text-anchor="middle" font-size="10" fill="#666">检测车辆ROI</text>
      <text x="310" y="88" text-anchor="middle" font-size="10" fill="#666">&lt; 50ms/帧</text>
      
      <!-- 箭头 -->
      <path d="M 410,55 L 440,55" stroke="#667eea" stroke-width="2" marker-end="url(#arrowBlue)"/>
      
      <!-- 步骤3 -->
      <rect x="440" y="0" width="200" height="110" rx="8" fill="#e6f7ff" stroke="#4facfe" stroke-width="2"/>
      <text x="540" y="30" text-anchor="middle" font-size="12" fill="#0066cc" font-weight="bold">目标跟踪</text>
      <text x="540" y="50" text-anchor="middle" font-size="11" fill="#333">DeepSORT跟踪</text>
      <text x="540" y="70" text-anchor="middle" font-size="10" fill="#666">分配Track ID</text>
      <text x="540" y="88" text-anchor="middle" font-size="10" fill="#666">连续轨迹跟踪</text>
      
      <!-- 箭头 -->
      <path d="M 640,55 L 670,55" stroke="#667eea" stroke-width="2" marker-end="url(#arrowBlue)"/>
      
      <!-- 步骤4 -->
      <rect x="670" y="0" width="200" height="110" rx="8" fill="#fff7e6" stroke="#ff9500" stroke-width="2"/>
      <text x="770" y="30" text-anchor="middle" font-size="12" fill="#ff6600" font-weight="bold">位置判断</text>
      <text x="770" y="50" text-anchor="middle" font-size="11" fill="#333">车辆进入最佳</text>
      <text x="770" y="70" text-anchor="middle" font-size="10" fill="#666">识别区域?</text>
      <text x="770" y="88" text-anchor="middle" font-size="10" fill="#ff6600" font-weight="bold">触发识别流程</text>
      
      <!-- 箭头 -->
      <path d="M 870,55 L 900,55" stroke="#667eea" stroke-width="2" marker-end="url(#arrowBlue)"/>
      
      <!-- 步骤5 -->
      <rect x="900" y="0" width="170" height="110" rx="8" fill="#f6ffed" stroke="#52c41a" stroke-width="2"/>
      <text x="985" y="30" text-anchor="middle" font-size="12" fill="#389e0d" font-weight="bold">进入阶段二</text>
      <text x="985" y="55" text-anchor="middle" font-size="11" fill="#333">保存关键帧</text>
      <text x="985" y="75" text-anchor="middle" font-size="10" fill="#666">车辆ID绑定</text>
    </g>
  </g>
  
  <!-- ==================== 阶段2: 空车载重与箱体分析 ==================== -->
  <g transform="translate(50, 320)">
    <rect x="0" y="0" width="1100" height="240" rx="12" fill="white" stroke="#f5576c" stroke-width="3" filter="url(#shadow)"/>
    <rect x="0" y="0" width="1100" height="40" rx="12" fill="url(#stage2Grad)"/>
    <text x="550" y="28" text-anchor="middle" font-size="16" fill="white" font-weight="bold">阶段二：空车/载重判断 &amp; 箱体面部分析</text>
    
    <!-- 左侧：空车检测 -->
    <g transform="translate(30, 60)">
      <text x="0" y="0" font-size="13" fill="#333" font-weight="bold">步骤1: 载重状态分析</text>
      
      <rect x="0" y="15" width="200" height="140" rx="8" fill="#fff2f0" stroke="#ff4d4f" stroke-width="2"/>
      <text x="100" y="40" text-anchor="middle" font-size="11" fill="#cf1322" font-weight="bold">平板车 vs 集装箱</text>
      <text x="100" y="60" text-anchor="middle" font-size="10" fill="#333">分析车辆顶部轮廓</text>
      <text x="100" y="80" text-anchor="middle" font-size="10" fill="#666">检测集装箱特征</text>
      <text x="100" y="100" text-anchor="middle" font-size="10" fill="#666">角件/箱体边缘</text>
      
      <!-- 分支 -->
      <g transform="translate(200, 85)">
        <path d="M 0,0 L 30,0" stroke="#ff4d4f" stroke-width="2"/>
        <text x="40" y="-15" font-size="10" fill="#52c41a" font-weight="bold">空车</text>
        <path d="M 30,0 L 30,-40 L 60,-40" stroke="#52c41a" stroke-width="2" marker-end="url(#arrowBlue)"/>
        
        <text x="40" y="15" font-size="10" fill="#ff4d4f" font-weight="bold">载重</text>
        <path d="M 30,0 L 30,40 L 60,40" stroke="#ff4d4f" stroke-width="2" marker-end="url(#arrowRed)"/>
      </g>
      
      <!-- 空车分支 -->
      <g transform="translate(260, 25)">
        <rect x="0" y="0" width="120" height="50" rx="6" fill="#f6ffed" stroke="#52c41a" stroke-width="2"/>
        <text x="60" y="20" text-anchor="middle" font-size="11" fill="#389e0d" font-weight="bold">空车确认</text>
        <text x="60" y="38" text-anchor="middle" font-size="10" fill="#666">车牌识别后放行</text>
      </g>
    </g>
    
    <!-- 右侧：箱体面部分析 -->
    <g transform="translate(450, 60)">
      <text x="0" y="0" font-size="13" fill="#333" font-weight="bold">步骤2: 集装箱六面拆解分析</text>
      
      <!-- 箱体示意图 -->
      <rect x="0" y="20" width="280" height="140" rx="8" fill="#f9f0ff" stroke="#722ed1" stroke-width="2"/>
      
      <!-- 顶视图 -->
      <rect x="20" y="40" width="100" height="60" rx="4" fill="#d3adf7" opacity="0.5"/>
      <text x="70" y="55" text-anchor="middle" font-size="9" fill="#531dab" font-weight="bold">顶面</text>
      <circle cx="35" cy="50" r="3" fill="#ff4d4f"/>
      <circle cx="105" cy="50" r="3" fill="#ff4d4f"/>
      <circle cx="35" cy="90" r="3" fill="#ff4d4f"/>
      <circle cx="105" cy="90" r="3" fill="#ff4d4f"/>
      
      <!-- 侧面标注 -->
      <text x="70" y="115" text-anchor="middle" font-size="9" fill="#333">角件定位 → 3D重建</text>
      
      <!-- 面部分析列表 -->
      <g transform="translate(140, 35)">
        <text x="0" y="0" font-size="10" fill="#333" font-weight="bold">面部分析:</text>
        <text x="10" y="18" font-size="9" fill="#666">• 左侧壁: 可见/遮挡?</text>
        <text x="10" y="35" font-size="9" fill="#666">• 右侧壁: 可见/遮挡?</text>
        <text x="10" y="52" font-size="9" fill="#666">• 门端: 可见/背对?</text>
        <text x="10" y="69" font-size="9" fill="#666">• 箱门朝向判断</text>
        <text x="10" y="86" font-size="9" fill="#666">• 箱号位置预测</text>
      </g>
    </g>
    
    <!-- 中间箭头 -->
    <path d="M 280,170 L 450,170" stroke="#722ed1" stroke-width="2" stroke-dasharray="5,3" marker-end="url(#arrowBlue)"/>
    <text x="365" y="160" text-anchor="middle" font-size="10" fill="#722ed1" font-weight="bold">载重车辆进入</text>
    
    <!-- 输出 -->
    <g transform="translate(760, 120)">
      <rect x="0" y="0" width="300" height="90" rx="8" fill="#e6fffb" stroke="#13c2c2" stroke-width="2"/>
      <text x="150" y="25" text-anchor="middle" font-size="12" fill="#006d75" font-weight="bold">阶段二输出</text>
      <text x="150" y="45" text-anchor="middle" font-size="10" fill="#333">• 单箱/双箱判定</text>
      <text x="150" y="62" text-anchor="middle" font-size="10" fill="#333">• 各面可见性矩阵</text>
      <text x="150" y="79" text-anchor="middle" font-size="10" fill="#333">• 最优拍摄视角建议</text>
    </g>
    
    <path d="M 730,170 L 760,165" stroke="#13c2c2" stroke-width="2" marker-end="url(#arrowBlue)"/>
  </g>
  
  <!-- ==================== 阶段3: 按需触发与多面拍摄 ==================== -->
  <g transform="translate(50, 580)">
    <rect x="0" y="0" width="1100" height="220" rx="12" fill="white" stroke="#52c41a" stroke-width="3" filter="url(#shadow)"/>
    <rect x="0" y="0" width="1100" height="40" rx="12" fill="url(#stage3Grad)"/>
    <text x="550" y="28" text-anchor="middle" font-size="16" fill="white" font-weight="bold">阶段三：按需相机触发与图像采集</text>
    
    <!-- 触发逻辑 -->
    <g transform="translate(30, 60)">
      <text x="0" y="0" font-size="13" fill="#333" font-weight="bold">智能触发策略</text>
      
      <!-- 策略卡片 -->
      <g transform="translate(0, 15)">
        <rect x="0" y="0" width="340" height="130" rx="8" fill="#f6ffed" stroke="#52c41a" stroke-width="2"/>
        
        <text x="10" y="25" font-size="11" fill="#389e0d" font-weight="bold">根据面部分析结果，选择性触发:</text>
        
        <text x="20" y="50" font-size="10" fill="#333">• 左侧壁需拍摄 → 触发 C3 (左侧相机)</text>
        <text x="20" y="70" font-size="10" fill="#333">• 右侧壁需拍摄 → 触发 C4 (右侧相机)</text>
        <text x="20" y="90" font-size="10" fill="#333">• 门端需确认 → 触发 C7 (前端相机)</text>
        <text x="20" y="110" font-size="10" fill="#333">• 双箱场景 → 按需触发 4-6 台相机</text>
      </g>
    </g>
    
    <!-- 相机布局 -->
    <g transform="translate(400, 60)">
      <text x="0" y="0" font-size="13" fill="#333" font-weight="bold">相机部署示意</text>
      
      <g transform="translate(0, 15)">
        <!-- 龙门架 -->
        <rect x="0" y="0" width="300" height="130" rx="8" fill="#fff7e6" stroke="#ffa940" stroke-width="2"/>
        
        <!-- 顶部相机 -->
        <circle cx="80" cy="25" r="15" fill="#f093fb"/>
        <text x="80" y="30" text-anchor="middle" font-size="9" fill="white" font-weight="bold">C5</text>
        <text x="80" y="50" text-anchor="middle" font-size="9" fill="#666">顶部左</text>
        
        <circle cx="220" cy="25" r="15" fill="#f5576c"/>
        <text x="220" y="30" text-anchor="middle" font-size="9" fill="white" font-weight="bold">C6</text>
        <text x="220" y="50" text-anchor="middle" font-size="9" fill="#666">顶部右</text>
        
        <!-- 侧壁相机 -->
        <rect x="20" y="85" width="30" height="20" rx="3" fill="#4facfe"/>
        <text x="35" y="99" text-anchor="middle" font-size="8" fill="white" font-weight="bold">C3</text>
        <text x="35" y="118" text-anchor="middle" font-size="8" fill="#666">左侧</text>
        
        <rect x="250" y="85" width="30" height="20" rx="3" fill="#00f2fe"/>
        <text x="265" y="99" text-anchor="middle" font-size="8" fill="white" font-weight="bold">C4</text>
        <text x="265" y="118" text-anchor="middle" font-size="8" fill="#666">右侧</text>
        
        <!-- 前端相机 -->
        <rect x="135" y="85" width="30" height="20" rx="3" fill="#52c41a"/>
        <text x="150" y="99" text-anchor="middle" font-size="8" fill="white" font-weight="bold">C7</text>
        <text x="150" y="118" text-anchor="middle" font-size="8" fill="#666">前端</text>
      </g>
    </g>
    
    <!-- 输出 -->
    <g transform="translate(730, 75)">
      <rect x="0" y="0" width="330" height="120" rx="8" fill="#e6f7ff" stroke="#1890ff" stroke-width="2"/>
      <text x="165" y="25" text-anchor="middle" font-size="12" fill="#096dd9" font-weight="bold">采集结果</text>
      <text x="165" y="48" text-anchor="middle" font-size="10" fill="#333">✓ 多视角高清图像 (2K/4K)</text>
      <text x="165" y="68" text-anchor="middle" font-size="10" fill="#333">✓ 带时间戳同步</text>
      <text x="165" y="88" text-anchor="middle" font-size="10" fill="#333">✓ 车辆ID绑定</text>
      <text x="165" y="108" text-anchor="middle" font-size="10" fill="#333">✓ 预处理后进入OCR</text>
    </g>
  </g>
  
  <!-- ==================== 阶段4: 多任务识别 ==================== -->
  <g transform="translate(50, 820)">
    <rect x="0" y="0" width="1100" height="240" rx="12" fill="white" stroke="#fa8c16" stroke-width="3" filter="url(#shadow)"/>
    <rect x="0" y="0" width="1100" height="40" rx="12" fill="url(#stage4Grad)"/>
    <text x="550" y="28" text-anchor="middle" font-size="16" fill="white" font-weight="bold">阶段四：多任务AI识别与结果融合</text>
    
    <!-- OCR任务 -->
    <g transform="translate(30, 60)">
      <text x="0" y="0" font-size="13" fill="#333" font-weight="bold">并行OCR识别任务</text>
      
      <!-- 任务1 -->
      <g transform="translate(0, 15)">
        <rect x="0" y="0" width="160" height="140" rx="8" fill="#fff2e8" stroke="#ff7a45" stroke-width="2"/>
        <text x="80" y="30" text-anchor="middle" font-size="12" fill="#d4380d" font-weight="bold">任务1</text>
        <text x="80" y="55" text-anchor="middle" font-size="11" fill="#333">箱号识别</text>
        <text x="80" y="75" text-anchor="middle" font-size="10" fill="#666">Container No.</text>
        <text x="80" y="95" text-anchor="middle" font-size="10" fill="#666">如: MSCU1234567</text>
        <text x="80" y="118" text-anchor="middle" font-size="9" fill="#52c41a">CRNN+Attention</text>
      </g>
      
      <!-- 任务2 -->
      <g transform="translate(180, 0)">
        <rect x="0" y="0" width="160" height="140" rx="8" fill="#f6ffed" stroke="#73d13d" stroke-width="2"/>
        <text x="80" y="30" text-anchor="middle" font-size="12" fill="#389e0d" font-weight="bold">任务2</text>
        <text x="80" y="55" text-anchor="middle" font-size="11" fill="#333">ISO类型识别</text>
        <text x="80" y="75" text-anchor="middle" font-size="10" fill="#666">Size/Type Code</text>
        <text x="80" y="95" text-anchor="middle" font-size="10" fill="#666">如: 22G1, 45R1</text>
        <text x="80" y="118" text-anchor="middle" font-size="9" fill="#52c41a">分类模型</text>
      </g>
      
      <!-- 任务3 -->
      <g transform="translate(360, 0)">
        <rect x="0" y="0" width="160" height="140" rx="8" fill="#e6fffb" stroke="#36cfc9" stroke-width="2"/>
        <text x="80" y="30" text-anchor="middle" font-size="12" fill="#08979c" font-weight="bold">任务3</text>
        <text x="80" y="55" text-anchor="middle" font-size="11" fill="#333">箱主识别</text>
        <text x="80" y="75" text-anchor="middle" font-size="10" fill="#666">Owner Code</text>
        <text x="80" y="95" text-anchor="middle" font-size="10" fill="#666">如: MSC, COS</text>
        <text x="80" y="118" text-anchor="middle" font-size="9" fill="#52c41a">OCR+字典匹配</text>
      </g>
      
      <!-- 任务4 -->
      <g transform="translate(540, 0)">
        <rect x="0" y="0" width="160" height="140" rx="8" fill="#f9f0ff" stroke="#b37feb" stroke-width="2"/>
        <text x="80" y="30" text-anchor="middle" font-size="12" fill="#531dab" font-weight="bold">任务4</text>
        <text x="80" y="55" text-anchor="middle" font-size="11" fill="#333">危险品标志</text>
        <text x="80" y="75" text-anchor="middle" font-size="10" fill="#666">Hazmat Label</text>
        <text x="80" y="95" text-anchor="middle" font-size="10" fill="#666">如: 危标/冷藏标</text>
        <text x="80" y="118" text-anchor="middle" font-size="9" fill="#52c41a">目标检测</text>
      </g>
    </g>
    
    <!-- 结果融合 -->
    <g transform="translate(750, 60)">
      <text x="0" y="0" font-size="13" fill="#333" font-weight="bold">多面结果融合</text>
      
      <rect x="0" y="15" width="320" height="140" rx="8" fill="#fff7e6" stroke="#ffa940" stroke-width="2"/>
      
      <text x="160" y="40" text-anchor="middle" font-size="11" fill="#d46b08" font-weight="bold">置信度投票机制</text>
      
      <text x="20" y="65" font-size="10" fill="#333">• 同一箱号多面识别 → 取最高置信度</text>
      <text x="20" y="85" font-size="10" fill="#333">• 双箱场景 → 分别融合左右箱结果</text>
      <text x="20" y="105" font-size="10" fill="#333">• 置信度&lt;90% → 标记人工复核</text>
      
      <rect x="20" y="115" width="280" height="30" rx="4" fill="#52c41a" opacity="0.2"/>
      <text x="160" y="135" text-anchor="middle" font-size="11" fill="#389e0d" font-weight="bold">输出: 箱号+类型+箱主+照片</text>
    </g>
    
    <!-- 箭头连接 -->
    <path d="M 530,135 L 750,135" stroke="#fa8c16" stroke-width="2" marker-end="url(#arrowBlue)"/>
  </g>
  
  <!-- ==================== 阶段5: 输出 ==================== -->
  <g transform="translate(50, 1080)">
    <rect x="0" y="0" width="1100" height="100" rx="12" fill="#52c41a" opacity="0.1" stroke="#52c41a" stroke-width="3" filter="url(#shadow)"/>
    
    <text x="550" y="35" text-anchor="middle" font-size="18" fill="#389e0d" font-weight="bold">阶段五：结果输出与上传</text>
    
    <g transform="translate(100, 55)">
      <rect x="0" y="0" width="200" height="35" rx="6" fill="white" stroke="#52c41a" stroke-width="2"/>
      <text x="100" y="23" text-anchor="middle" font-size="11" fill="#389e0d">箱号 + ISO类型</text>
    </g>
    
    <g transform="translate(320, 55)">
      <rect x="0" y="0" width="200" height="35" rx="6" fill="white" stroke="#52c41a" stroke-width="2"/>
      <text x="100" y="23" text-anchor="middle" font-size="11" fill="#389e0d">箱主 + 识别照片</text>
    </g>
    
    <g transform="translate(540, 55)">
      <rect x="0" y="0" width="200" height="35" rx="6" fill="white" stroke="#52c41a" stroke-width="2"/>
      <text x="100" y="23" text-anchor="middle" font-size="11" fill="#389e0d">时间戳 + 车辆ID</text>
    </g>
    
    <g transform="translate(760, 55)">
      <rect x="0" y="0" width="200" height="35" rx="6" fill="#1890ff" stroke="#1890ff" stroke-width="2"/>
      <text x="100" y="23" text-anchor="middle" font-size="11" fill="white" font-weight="bold">上传TOS系统</text>
    </g>
    
    <path d="M 300,72 L 320,72" stroke="#52c41a" stroke-width="2" marker-end="url(#arrowBlue)"/>
    <path d="M 520,72 L 540,72" stroke="#52c41a" stroke-width="2" marker-end="url(#arrowBlue)"/>
    <path d="M 740,72 L 760,72" stroke="#52c41a" stroke-width="2" marker-end="url(#arrowBlue)"/>
  </g>
  
  <!-- ==================== 底部说明 ==================== -->
  <g transform="translate(50, 1200)">
    <rect x="0" y="0" width="1100" height="180" rx="12" fill="#f0f5ff" stroke="#2f54eb" stroke-width="1"/>
    <text x="550" y="30" text-anchor="middle" font-size="14" fill="#1d39c4" font-weight="bold">核心技术特点 (纯视觉方案)</text>
    
    <g transform="translate(30, 50)">
      <text x="0" y="0" font-size="11" fill="#333" font-weight="bold">✓ 无物理触发:</text>
      <text x="100" y="0" font-size="11" fill="#666">无需地感线圈、光栅等触发设备，纯摄像头实时检测</text>
      
      <text x="0" y="25" font-size="11" fill="#333" font-weight="bold">✓ 实时跟踪:</text>
      <text x="100" y="25" font-size="11" fill="#666">DeepSORT持续跟踪车辆轨迹，在最佳位置触发识别</text>
      
      <text x="0" y="50" font-size="11" fill="#333" font-weight="bold">✓ 智能触发:</text>
      <text x="100" y="50" font-size="11" fill="#666">按需选择性触发相机，降低损耗，提升效率</text>
      
      <text x="0" y="75" font-size="11" fill="#333" font-weight="bold">✓ 多任务识别:</text>
      <text x="100" y="75" font-size="11" fill="#666">同时识别箱号、ISO类型、箱主、危险品标志</text>
      
      <text x="0" y="100" font-size="11" fill="#333" font-weight="bold">✓ 多面融合:</text>
      <text x="100" y="100" font-size="11" fill="#666">六面拆解分析，多视角结果融合，准确率≥99.5%</text>
      
      <text x="0" y="125" font-size="11" fill="#333" font-weight="bold">✓ 空车过滤:</text>
      <text x="100" y="125" font-size="11" fill="#666">自动识别空车并快速放行，节省40%算力</text>
    </g>
    
    <text x="550" y="165" text-anchor="middle" font-size="10" fill="#8c8c8c">
      系统响应时间 ≤ 2秒 | 识别准确率 ≥ 99.5% | 支持单箱/双箱/歪斜/夜间等复杂场景
    </text>
  </g>
</svg>
